<mxfile host="app.diagrams.net" modified="2024-06-09T10:44:29.602Z" agent="Mozilla/5.0 (Windows NT 10.0; Win64; x64) AppleWebKit/537.36 (KHTML, like Gecko) Chrome/123.0.0.0 Safari/537.36 OPR/109.0.0.0 (Edition std-1)" etag="pt5k-sJkWs0id9UyJh2y" version="24.5.2" type="google">
  <diagram name="Page-1" id="yEUk4PSPVy6la2OCzM-_">
    <mxGraphModel grid="1" page="1" gridSize="10" guides="1" tooltips="1" connect="1" arrows="1" fold="1" pageScale="1" pageWidth="550" pageHeight="650" background="#ffffff" math="0" shadow="0">
      <root>
        <mxCell id="0" />
        <mxCell id="1" parent="0" />
        <mxCell id="92-sSJWoaJbaDQhIfqA1-2" value="" style="shape=umlLifeline;perimeter=lifelinePerimeter;whiteSpace=wrap;html=1;container=1;dropTarget=0;collapsible=0;recursiveResize=0;outlineConnect=0;portConstraint=eastwest;newEdgeStyle={&quot;curved&quot;:0,&quot;rounded&quot;:0};participant=umlActor;size=40;" vertex="1" parent="1">
          <mxGeometry x="30" y="20" width="20" height="590" as="geometry" />
        </mxCell>
        <mxCell id="92-sSJWoaJbaDQhIfqA1-3" value=":Użytkownik" style="text;align=center;fontStyle=1;verticalAlign=middle;spacingLeft=3;spacingRight=3;strokeColor=none;rotatable=0;points=[[0,0.5],[1,0.5]];portConstraint=eastwest;html=1;rounded=0;" vertex="1" parent="1">
          <mxGeometry width="80" height="26" as="geometry" />
        </mxCell>
        <mxCell id="92-sSJWoaJbaDQhIfqA1-5" value=":Gui" style="shape=umlLifeline;perimeter=lifelinePerimeter;whiteSpace=wrap;html=1;container=1;dropTarget=0;collapsible=0;recursiveResize=0;outlineConnect=0;portConstraint=eastwest;newEdgeStyle={&quot;curved&quot;:0,&quot;rounded&quot;:0};" vertex="1" parent="1">
          <mxGeometry x="180" y="40" width="100" height="570" as="geometry" />
        </mxCell>
        <mxCell id="92-sSJWoaJbaDQhIfqA1-7" value="Kliknięcie przycisku &quot;2D&quot;" style="html=1;verticalAlign=bottom;endArrow=block;curved=0;rounded=0;" edge="1" parent="1" target="92-sSJWoaJbaDQhIfqA1-5">
          <mxGeometry width="80" relative="1" as="geometry">
            <mxPoint x="40.08333333333326" y="110" as="sourcePoint" />
            <mxPoint x="199.5" y="110" as="targetPoint" />
          </mxGeometry>
        </mxCell>
        <mxCell id="92-sSJWoaJbaDQhIfqA1-9" value="Kliknięcie przycisku &quot;3D&quot;" style="html=1;verticalAlign=bottom;endArrow=block;curved=0;rounded=0;" edge="1" parent="1">
          <mxGeometry width="80" relative="1" as="geometry">
            <mxPoint x="40.00333333333326" y="290" as="sourcePoint" />
            <mxPoint x="229.5" y="290" as="targetPoint" />
          </mxGeometry>
        </mxCell>
        <mxCell id="92-sSJWoaJbaDQhIfqA1-10" value="Kliknięcie przycisku &quot;Pełny ekran&quot;" style="html=1;verticalAlign=bottom;endArrow=block;curved=0;rounded=0;" edge="1" parent="1">
          <mxGeometry x="0.0008" width="80" relative="1" as="geometry">
            <mxPoint x="40.00333333333326" y="480" as="sourcePoint" />
            <mxPoint x="229.5" y="480" as="targetPoint" />
            <mxPoint as="offset" />
          </mxGeometry>
        </mxCell>
        <mxCell id="92-sSJWoaJbaDQhIfqA1-12" value=":Object" style="shape=umlLifeline;perimeter=lifelinePerimeter;whiteSpace=wrap;html=1;container=1;dropTarget=0;collapsible=0;recursiveResize=0;outlineConnect=0;portConstraint=eastwest;newEdgeStyle={&quot;curved&quot;:0,&quot;rounded&quot;:0};" vertex="1" parent="1">
          <mxGeometry x="430" y="40" width="100" height="570" as="geometry" />
        </mxCell>
        <mxCell id="92-sSJWoaJbaDQhIfqA1-14" value="Przycisk &quot;2D&quot; kliknięty" style="html=1;verticalAlign=bottom;endArrow=block;curved=0;rounded=0;" edge="1" parent="1" target="92-sSJWoaJbaDQhIfqA1-12">
          <mxGeometry width="80" relative="1" as="geometry">
            <mxPoint x="230.00333333333325" y="120" as="sourcePoint" />
            <mxPoint x="418.91999999999996" y="120" as="targetPoint" />
          </mxGeometry>
        </mxCell>
        <mxCell id="92-sSJWoaJbaDQhIfqA1-15" value="zmień widok na &quot;2D&quot;" style="html=1;verticalAlign=bottom;endArrow=open;dashed=1;endSize=8;curved=0;rounded=0;" edge="1" parent="1" source="92-sSJWoaJbaDQhIfqA1-12">
          <mxGeometry relative="1" as="geometry">
            <mxPoint x="449.4999999999998" y="190" as="sourcePoint" />
            <mxPoint x="230.07446808510645" y="190" as="targetPoint" />
          </mxGeometry>
        </mxCell>
        <mxCell id="92-sSJWoaJbaDQhIfqA1-17" value="" style="line;strokeWidth=2;fillColor=none;align=left;verticalAlign=middle;spacingTop=-1;spacingLeft=3;spacingRight=3;rotatable=0;labelPosition=right;points=[];portConstraint=eastwest;strokeColor=inherit;" vertex="1" parent="1">
          <mxGeometry x="10" y="238" width="530" height="2" as="geometry" />
        </mxCell>
        <mxCell id="92-sSJWoaJbaDQhIfqA1-18" value="Przycisk &quot;3D&quot; kliknięty" style="html=1;verticalAlign=bottom;endArrow=block;curved=0;rounded=0;" edge="1" parent="1" target="92-sSJWoaJbaDQhIfqA1-12">
          <mxGeometry width="80" relative="1" as="geometry">
            <mxPoint x="230.00333333333325" y="310" as="sourcePoint" />
            <mxPoint x="450" y="310" as="targetPoint" />
          </mxGeometry>
        </mxCell>
        <mxCell id="92-sSJWoaJbaDQhIfqA1-19" value="zmień widok na &quot;3D&quot;" style="html=1;verticalAlign=bottom;endArrow=open;dashed=1;endSize=8;curved=0;rounded=0;" edge="1" parent="1" source="92-sSJWoaJbaDQhIfqA1-12">
          <mxGeometry relative="1" as="geometry">
            <mxPoint x="449.4999999999998" y="380" as="sourcePoint" />
            <mxPoint x="230.07446808510645" y="380" as="targetPoint" />
          </mxGeometry>
        </mxCell>
        <mxCell id="92-sSJWoaJbaDQhIfqA1-20" value="" style="line;strokeWidth=2;fillColor=none;align=left;verticalAlign=middle;spacingTop=-1;spacingLeft=3;spacingRight=3;rotatable=0;labelPosition=right;points=[];portConstraint=eastwest;strokeColor=inherit;" vertex="1" parent="1">
          <mxGeometry x="10" y="420" width="530" height="2" as="geometry" />
        </mxCell>
        <mxCell id="92-sSJWoaJbaDQhIfqA1-21" value="Przycisk &quot;Pełny ekran&quot; kliknięty" style="html=1;verticalAlign=bottom;endArrow=block;curved=0;rounded=0;" edge="1" parent="1" target="92-sSJWoaJbaDQhIfqA1-12">
          <mxGeometry width="80" relative="1" as="geometry">
            <mxPoint x="230.00333333333325" y="500" as="sourcePoint" />
            <mxPoint x="450" y="500" as="targetPoint" />
          </mxGeometry>
        </mxCell>
        <mxCell id="92-sSJWoaJbaDQhIfqA1-22" value="zmień aktualny widok na tryb pełno ekranowy" style="html=1;verticalAlign=bottom;endArrow=open;dashed=1;endSize=8;curved=0;rounded=0;" edge="1" parent="1" source="92-sSJWoaJbaDQhIfqA1-12">
          <mxGeometry relative="1" as="geometry">
            <mxPoint x="449.4999999999998" y="570" as="sourcePoint" />
            <mxPoint x="230.07446808510645" y="570" as="targetPoint" />
          </mxGeometry>
        </mxCell>
      </root>
    </mxGraphModel>
  </diagram>
</mxfile>
